# xmcd
#
# Track frame offsets:
# 182
# 22407
# 46032
# 61610
# 84987
# 113837
# 131585
# 161162
# 183370
# 201945
#
# Disc length: 2966 seconds
#
#
# Revision: 0
# Processed by: cddbd v1.5.1PL2 Copyright (c) Steve Scherf et al.
# Submitted via: FreeRIP 2.945 
#
DISCID=810b940a
DTITLE=Fleetwood Mac - Fleedwood Mac Live
DYEAR=1900
DGENRE=Folk
TTITLE0=Got to move
TTITLE1=I held my baby last night
TTITLE2=My baby's sweet
TTITLE3=My baby's a good 'un
TTITLE4=Don't know which way to go
TTITLE5=Buzz me
TTITLE6=Worried woman
TTITLE7=The world keeps on turning
TTITLE8=How blue can you get
TTITLE9=Bleeding hart
EXTD=
EXTT0=
EXTT1=
EXTT2=
EXTT3=
EXTT4=
EXTT5=
EXTT6=
EXTT7=
EXTT8=
EXTT9=
PLAYORDER=
